<svg width="94" height="94" viewBox="0 0 94 94" fill="none" xmlns="http://www.w3.org/2000/svg">
<path d="M47 92C71.8528 92 92 71.8528 92 47C92 22.1472 71.8528 2 47 2C22.1472 2 2 22.1472 2 47C2 71.8528 22.1472 92 47 92Z" fill="white" stroke="#1259A5" stroke-width="4"/>
<path d="M27 57C33.6667 50.3333 40.3333 48.6667 47 52C53.6667 48.6667 60.3333 50.3333 67 57V27C60.3333 23.6667 53.6667 23.6667 47 27C40.3333 23.6667 33.6667 23.6667 27 27V57Z" fill="white" stroke="#1259A5" stroke-width="2"/>
<path d="M17 32L47 12L77 32" stroke="#1259A5" stroke-width="4"/>
</svg>
